<svg xmlns="http://www.w3.org/2000/svg" xmlns:xlink="http://www.w3.org/1999/xlink" width="80" zoomAndPan="magnify" viewBox="0 0 60 32.249999" height="43" preserveAspectRatio="xMidYMid meet" version="1.0"><defs><g/></defs><g fill="#000000" fill-opacity="1"><g transform="translate(2.7221, 17.863752)"><g><path d="M 5.125 -2.953125 L 5.734375 -2.953125 L 5.734375 -0.703125 C 5.453125 -0.460938 5.125 -0.273438 4.75 -0.140625 C 4.375 -0.015625 3.976562 0.046875 3.5625 0.046875 C 2.96875 0.046875 2.429688 -0.0820312 1.953125 -0.34375 C 1.484375 -0.601562 1.113281 -0.960938 0.84375 -1.421875 C 0.570312 -1.878906 0.4375 -2.390625 0.4375 -2.953125 C 0.4375 -3.523438 0.570312 -4.039062 0.84375 -4.5 C 1.113281 -4.957031 1.484375 -5.316406 1.953125 -5.578125 C 2.429688 -5.835938 2.96875 -5.96875 3.5625 -5.96875 C 4.019531 -5.96875 4.4375 -5.894531 4.8125 -5.75 C 5.1875 -5.601562 5.503906 -5.390625 5.765625 -5.109375 L 5.375 -4.71875 C 4.90625 -5.175781 4.3125 -5.40625 3.59375 -5.40625 C 3.113281 -5.40625 2.679688 -5.300781 2.296875 -5.09375 C 1.910156 -4.882812 1.609375 -4.59375 1.390625 -4.21875 C 1.171875 -3.84375 1.0625 -3.421875 1.0625 -2.953125 C 1.0625 -2.492188 1.171875 -2.078125 1.390625 -1.703125 C 1.609375 -1.335938 1.90625 -1.046875 2.28125 -0.828125 C 2.664062 -0.609375 3.097656 -0.5 3.578125 -0.5 C 4.191406 -0.5 4.707031 -0.65625 5.125 -0.96875 Z M 5.125 -2.953125 "/></g></g></g><g fill="#000000" fill-opacity="1"><g transform="translate(9.260627, 17.863752)"><g><path d="M 1.40625 -3.578125 C 1.550781 -3.878906 1.757812 -4.101562 2.03125 -4.25 C 2.3125 -4.40625 2.660156 -4.484375 3.078125 -4.484375 L 3.078125 -3.890625 L 2.9375 -3.90625 C 2.46875 -3.90625 2.097656 -3.757812 1.828125 -3.46875 C 1.566406 -3.1875 1.4375 -2.785156 1.4375 -2.265625 L 1.4375 0 L 0.84375 0 L 0.84375 -4.453125 L 1.40625 -4.453125 Z M 1.40625 -3.578125 "/></g></g></g><g fill="#000000" fill-opacity="1"><g transform="translate(12.652537, 17.863752)"><g><path d="M 4.84375 -4.453125 L 4.84375 0 L 4.265625 0 L 4.265625 -0.8125 C 4.109375 -0.539062 3.890625 -0.328125 3.609375 -0.171875 C 3.335938 -0.0234375 3.023438 0.046875 2.671875 0.046875 C 2.085938 0.046875 1.628906 -0.113281 1.296875 -0.4375 C 0.960938 -0.769531 0.796875 -1.25 0.796875 -1.875 L 0.796875 -4.453125 L 1.390625 -4.453125 L 1.390625 -1.921875 C 1.390625 -1.453125 1.503906 -1.097656 1.734375 -0.859375 C 1.972656 -0.617188 2.304688 -0.5 2.734375 -0.5 C 3.203125 -0.5 3.570312 -0.640625 3.84375 -0.921875 C 4.113281 -1.210938 4.25 -1.609375 4.25 -2.109375 L 4.25 -4.453125 Z M 4.84375 -4.453125 "/></g></g></g><g fill="#000000" fill-opacity="1"><g transform="translate(18.345197, 17.863752)"><g><path d="M 3.125 -4.484375 C 3.539062 -4.484375 3.914062 -4.382812 4.25 -4.1875 C 4.59375 -4 4.859375 -3.734375 5.046875 -3.390625 C 5.242188 -3.046875 5.34375 -2.65625 5.34375 -2.21875 C 5.34375 -1.78125 5.242188 -1.390625 5.046875 -1.046875 C 4.859375 -0.703125 4.597656 -0.429688 4.265625 -0.234375 C 3.929688 -0.046875 3.550781 0.046875 3.125 0.046875 C 2.769531 0.046875 2.445312 -0.0234375 2.15625 -0.171875 C 1.863281 -0.328125 1.625 -0.550781 1.4375 -0.84375 L 1.4375 1.640625 L 0.84375 1.640625 L 0.84375 -4.453125 L 1.40625 -4.453125 L 1.40625 -3.5625 C 1.59375 -3.851562 1.832031 -4.078125 2.125 -4.234375 C 2.414062 -4.398438 2.75 -4.484375 3.125 -4.484375 Z M 3.078125 -0.484375 C 3.390625 -0.484375 3.671875 -0.554688 3.921875 -0.703125 C 4.179688 -0.847656 4.382812 -1.050781 4.53125 -1.3125 C 4.675781 -1.582031 4.75 -1.882812 4.75 -2.21875 C 4.75 -2.5625 4.675781 -2.863281 4.53125 -3.125 C 4.382812 -3.382812 4.179688 -3.585938 3.921875 -3.734375 C 3.671875 -3.878906 3.390625 -3.953125 3.078125 -3.953125 C 2.765625 -3.953125 2.484375 -3.878906 2.234375 -3.734375 C 1.984375 -3.585938 1.785156 -3.382812 1.640625 -3.125 C 1.492188 -2.863281 1.421875 -2.5625 1.421875 -2.21875 C 1.421875 -1.882812 1.492188 -1.582031 1.640625 -1.3125 C 1.785156 -1.050781 1.984375 -0.847656 2.234375 -0.703125 C 2.484375 -0.554688 2.765625 -0.484375 3.078125 -0.484375 Z M 3.078125 -0.484375 "/></g></g></g><g fill="#000000" fill-opacity="1"><g transform="translate(24.080159, 17.863752)"><g><path d="M 3.125 -4.484375 C 3.539062 -4.484375 3.914062 -4.382812 4.25 -4.1875 C 4.59375 -4 4.859375 -3.734375 5.046875 -3.390625 C 5.242188 -3.046875 5.34375 -2.65625 5.34375 -2.21875 C 5.34375 -1.78125 5.242188 -1.390625 5.046875 -1.046875 C 4.859375 -0.703125 4.597656 -0.429688 4.265625 -0.234375 C 3.929688 -0.046875 3.550781 0.046875 3.125 0.046875 C 2.769531 0.046875 2.445312 -0.0234375 2.15625 -0.171875 C 1.863281 -0.328125 1.625 -0.550781 1.4375 -0.84375 L 1.4375 1.640625 L 0.84375 1.640625 L 0.84375 -4.453125 L 1.40625 -4.453125 L 1.40625 -3.5625 C 1.59375 -3.851562 1.832031 -4.078125 2.125 -4.234375 C 2.414062 -4.398438 2.75 -4.484375 3.125 -4.484375 Z M 3.078125 -0.484375 C 3.390625 -0.484375 3.671875 -0.554688 3.921875 -0.703125 C 4.179688 -0.847656 4.382812 -1.050781 4.53125 -1.3125 C 4.675781 -1.582031 4.75 -1.882812 4.75 -2.21875 C 4.75 -2.5625 4.675781 -2.863281 4.53125 -3.125 C 4.382812 -3.382812 4.179688 -3.585938 3.921875 -3.734375 C 3.671875 -3.878906 3.390625 -3.953125 3.078125 -3.953125 C 2.765625 -3.953125 2.484375 -3.878906 2.234375 -3.734375 C 1.984375 -3.585938 1.785156 -3.382812 1.640625 -3.125 C 1.492188 -2.863281 1.421875 -2.5625 1.421875 -2.21875 C 1.421875 -1.882812 1.492188 -1.582031 1.640625 -1.3125 C 1.785156 -1.050781 1.984375 -0.847656 2.234375 -0.703125 C 2.484375 -0.554688 2.765625 -0.484375 3.078125 -0.484375 Z M 3.078125 -0.484375 "/></g></g></g><g fill="#000000" fill-opacity="1"><g transform="translate(29.815121, 17.863752)"><g><path d="M 4.703125 -2.03125 L 0.984375 -2.03125 C 1.023438 -1.570312 1.203125 -1.195312 1.515625 -0.90625 C 1.835938 -0.625 2.242188 -0.484375 2.734375 -0.484375 C 3.015625 -0.484375 3.269531 -0.53125 3.5 -0.625 C 3.726562 -0.726562 3.925781 -0.878906 4.09375 -1.078125 L 4.4375 -0.6875 C 4.238281 -0.445312 3.988281 -0.265625 3.6875 -0.140625 C 3.394531 -0.015625 3.070312 0.046875 2.71875 0.046875 C 2.257812 0.046875 1.851562 -0.0507812 1.5 -0.25 C 1.15625 -0.445312 0.882812 -0.71875 0.6875 -1.0625 C 0.488281 -1.40625 0.390625 -1.789062 0.390625 -2.21875 C 0.390625 -2.65625 0.484375 -3.046875 0.671875 -3.390625 C 0.859375 -3.734375 1.113281 -4 1.4375 -4.1875 C 1.769531 -4.382812 2.144531 -4.484375 2.5625 -4.484375 C 2.96875 -4.484375 3.332031 -4.382812 3.65625 -4.1875 C 3.988281 -4 4.25 -3.734375 4.4375 -3.390625 C 4.625 -3.046875 4.71875 -2.65625 4.71875 -2.21875 Z M 2.5625 -3.96875 C 2.132812 -3.96875 1.773438 -3.828125 1.484375 -3.546875 C 1.191406 -3.273438 1.023438 -2.921875 0.984375 -2.484375 L 4.140625 -2.484375 C 4.097656 -2.921875 3.929688 -3.273438 3.640625 -3.546875 C 3.359375 -3.828125 3 -3.96875 2.5625 -3.96875 Z M 2.5625 -3.96875 "/></g></g></g><g fill="#05b93b" fill-opacity="1"><g transform="translate(34.926386, 17.863752)"><g><path d="M 2.078125 -4.8125 L 2.078125 -3.25 L 4.8125 -3.25 L 4.8125 -2.15625 L 2.078125 -2.15625 L 2.078125 0 L 0.703125 0 L 0.703125 -5.921875 L 5.171875 -5.921875 L 5.171875 -4.8125 Z M 2.078125 -4.8125 "/></g></g></g><g fill="#05b93b" fill-opacity="1"><g transform="translate(40.331461, 17.863752)"><g><path d="M 2.765625 0.0625 C 2.285156 0.0625 1.851562 -0.0351562 1.46875 -0.234375 C 1.09375 -0.429688 0.796875 -0.707031 0.578125 -1.0625 C 0.367188 -1.414062 0.265625 -1.820312 0.265625 -2.28125 C 0.265625 -2.726562 0.367188 -3.128906 0.578125 -3.484375 C 0.796875 -3.835938 1.09375 -4.113281 1.46875 -4.3125 C 1.851562 -4.507812 2.285156 -4.609375 2.765625 -4.609375 C 3.242188 -4.609375 3.671875 -4.507812 4.046875 -4.3125 C 4.429688 -4.113281 4.726562 -3.835938 4.9375 -3.484375 C 5.15625 -3.128906 5.265625 -2.726562 5.265625 -2.28125 C 5.265625 -1.820312 5.15625 -1.414062 4.9375 -1.0625 C 4.726562 -0.707031 4.429688 -0.429688 4.046875 -0.234375 C 3.671875 -0.0351562 3.242188 0.0625 2.765625 0.0625 Z M 2.765625 -1.015625 C 3.109375 -1.015625 3.390625 -1.128906 3.609375 -1.359375 C 3.828125 -1.585938 3.9375 -1.894531 3.9375 -2.28125 C 3.9375 -2.65625 3.828125 -2.957031 3.609375 -3.1875 C 3.390625 -3.414062 3.109375 -3.53125 2.765625 -3.53125 C 2.429688 -3.53125 2.15625 -3.414062 1.9375 -3.1875 C 1.71875 -2.957031 1.609375 -2.65625 1.609375 -2.28125 C 1.609375 -1.894531 1.71875 -1.585938 1.9375 -1.359375 C 2.15625 -1.128906 2.429688 -1.015625 2.765625 -1.015625 Z M 2.765625 -1.015625 "/></g></g></g><g fill="#05b93b" fill-opacity="1"><g transform="translate(45.871876, 17.863752)"><g><path d="M 2.765625 0.0625 C 2.285156 0.0625 1.851562 -0.0351562 1.46875 -0.234375 C 1.09375 -0.429688 0.796875 -0.707031 0.578125 -1.0625 C 0.367188 -1.414062 0.265625 -1.820312 0.265625 -2.28125 C 0.265625 -2.726562 0.367188 -3.128906 0.578125 -3.484375 C 0.796875 -3.835938 1.09375 -4.113281 1.46875 -4.3125 C 1.851562 -4.507812 2.285156 -4.609375 2.765625 -4.609375 C 3.242188 -4.609375 3.671875 -4.507812 4.046875 -4.3125 C 4.429688 -4.113281 4.726562 -3.835938 4.9375 -3.484375 C 5.15625 -3.128906 5.265625 -2.726562 5.265625 -2.28125 C 5.265625 -1.820312 5.15625 -1.414062 4.9375 -1.0625 C 4.726562 -0.707031 4.429688 -0.429688 4.046875 -0.234375 C 3.671875 -0.0351562 3.242188 0.0625 2.765625 0.0625 Z M 2.765625 -1.015625 C 3.109375 -1.015625 3.390625 -1.128906 3.609375 -1.359375 C 3.828125 -1.585938 3.9375 -1.894531 3.9375 -2.28125 C 3.9375 -2.65625 3.828125 -2.957031 3.609375 -3.1875 C 3.390625 -3.414062 3.109375 -3.53125 2.765625 -3.53125 C 2.429688 -3.53125 2.15625 -3.414062 1.9375 -3.1875 C 1.71875 -2.957031 1.609375 -2.65625 1.609375 -2.28125 C 1.609375 -1.894531 1.71875 -1.585938 1.9375 -1.359375 C 2.15625 -1.128906 2.429688 -1.015625 2.765625 -1.015625 Z M 2.765625 -1.015625 "/></g></g></g><g fill="#05b93b" fill-opacity="1"><g transform="translate(51.41229, 17.863752)"><g><path d="M 5.234375 -6.265625 L 5.234375 0 L 3.984375 0 L 3.984375 -0.53125 C 3.648438 -0.132812 3.175781 0.0625 2.5625 0.0625 C 2.132812 0.0625 1.742188 -0.03125 1.390625 -0.21875 C 1.046875 -0.40625 0.773438 -0.675781 0.578125 -1.03125 C 0.378906 -1.394531 0.28125 -1.8125 0.28125 -2.28125 C 0.28125 -2.738281 0.378906 -3.144531 0.578125 -3.5 C 0.773438 -3.863281 1.046875 -4.140625 1.390625 -4.328125 C 1.742188 -4.515625 2.132812 -4.609375 2.5625 -4.609375 C 3.144531 -4.609375 3.597656 -4.425781 3.921875 -4.0625 L 3.921875 -6.265625 Z M 2.796875 -1.015625 C 3.117188 -1.015625 3.390625 -1.128906 3.609375 -1.359375 C 3.835938 -1.585938 3.953125 -1.894531 3.953125 -2.28125 C 3.953125 -2.65625 3.835938 -2.957031 3.609375 -3.1875 C 3.390625 -3.414062 3.117188 -3.53125 2.796875 -3.53125 C 2.453125 -3.53125 2.171875 -3.414062 1.953125 -3.1875 C 1.734375 -2.957031 1.625 -2.65625 1.625 -2.28125 C 1.625 -1.894531 1.734375 -1.585938 1.953125 -1.359375 C 2.171875 -1.128906 2.453125 -1.015625 2.796875 -1.015625 Z M 2.796875 -1.015625 "/></g></g></g></svg>